<svg
          xmlns="http://www.w3.org/2000/svg"
          width="188"
          height="374"
          viewBox="0 0 188 374"
          fill="none"
          className="sidebarListingImage"
        >
          <g clip-path="url(#clip0_1308_1577)">
            <path
              d="M6.76259 0.677536C3.40656 0.677536 0.676259 3.06661 0.676259 6.00321V367.997C0.676259 370.933 3.40656 373.322 6.76259 373.322H181.237C184.593 373.322 187.324 370.933 187.324 367.997V6.00321C187.324 3.06661 184.593 0.677536 181.237 0.677536H6.76259ZM6.76259 0H181.237C184.972 0 188 2.68773 188 6.00321V367.997C188 371.312 184.972 374 181.237 374H6.76259C3.02771 374 0 371.312 0 367.997V6.00321C0 2.68773 3.02771 0 6.76259 0Z"
              fill="#DBDBE8"
            ></path>
            <path d="M188 56.2363H0V113.827H188V56.2363Z" fill="#3979C3"></path>
            <path
              d="M187.662 56.5752H0.338135V113.488H187.662V56.5752Z"
              stroke="#EBEBED"
            ></path>
            <path
              d="M37.8705 108.405C50.5691 108.405 60.8633 98.0918 60.8633 85.3692C60.8633 72.6467 50.5691 62.333 37.8705 62.333C25.1719 62.333 14.8777 72.6467 14.8777 85.3692C14.8777 98.0918 25.1719 108.405 37.8705 108.405Z"
              fill="#DDDEE2"
            ></path>
            <path
              d="M144.043 77.916H74.3885C72.1476 77.916 70.3309 79.7361 70.3309 81.9812C70.3309 84.2264 72.1476 86.0464 74.3885 86.0464H144.043C146.284 86.0464 148.101 84.2264 148.101 81.9812C148.101 79.7361 146.284 77.916 144.043 77.916Z"
              fill="white"
            ></path>
            <path
              d="M146.748 90.7891H71.6835C70.9365 90.7891 70.3309 91.3957 70.3309 92.1441C70.3309 92.8925 70.9365 93.4992 71.6835 93.4992H146.748C147.495 93.4992 148.101 92.8925 148.101 92.1441C148.101 91.3957 147.495 90.7891 146.748 90.7891Z"
              fill="white"
            ></path>
            <path
              d="M37.8779 6.90039C42.4182 6.90039 46.8566 8.2493 50.6318 10.7765C54.4069 13.3038 57.3493 16.8958 59.0868 21.0985C60.8243 25.3011 61.2789 29.9255 60.3931 34.387C59.5073 38.8485 57.321 42.9467 54.1105 46.1632C50.9 49.3798 46.8096 51.5703 42.3565 52.4577C37.9034 53.3452 33.2876 52.8897 29.0929 51.1489C24.8982 49.4081 21.3129 46.4602 18.7905 42.678C16.268 38.8957 14.9216 34.4489 14.9216 29.9C14.9216 23.8001 17.3402 17.9501 21.6454 13.6368C25.9505 9.32356 31.7895 6.90039 37.8779 6.90039Z"
              fill="#DDDEE2"
            ></path>
            <path
              d="M144.043 22.3594H74.3885C72.1476 22.3594 70.3309 24.1794 70.3309 26.4246C70.3309 28.6697 72.1476 30.4898 74.3885 30.4898H144.043C146.284 30.4898 148.101 28.6697 148.101 26.4246C148.101 24.1794 146.284 22.3594 144.043 22.3594Z"
              fill="#DDDEE2"
            ></path>
            <path
              d="M146.748 35.2324H71.6835C70.9365 35.2324 70.3309 35.8391 70.3309 36.5875C70.3309 37.3359 70.9365 37.9426 71.6835 37.9426H146.748C147.495 37.9426 148.101 37.3359 148.101 36.5875C148.101 35.8391 147.495 35.2324 146.748 35.2324Z"
              fill="#DDDEE2"
            ></path>
            <path
              d="M37.8779 117.999C42.4182 117.999 46.8566 119.348 50.6318 121.875C54.4069 124.402 57.3493 127.994 59.0868 132.197C60.8243 136.4 61.2789 141.024 60.3931 145.486C59.5073 149.947 57.321 154.045 54.1105 157.262C50.9 160.478 46.8096 162.669 42.3565 163.556C37.9034 164.444 33.2876 163.988 29.0929 162.248C24.8982 160.507 21.3129 157.559 18.7905 153.777C16.268 149.994 14.9216 145.548 14.9216 140.999C14.9216 134.899 17.3402 129.049 21.6454 124.735C25.9505 120.422 31.7895 117.999 37.8779 117.999Z"
              fill="#DDDEE2"
            ></path>
            <path
              d="M144.043 134.83H74.3885C72.1476 134.83 70.3309 136.65 70.3309 138.895C70.3309 141.14 72.1476 142.961 74.3885 142.961H144.043C146.284 142.961 148.101 141.14 148.101 138.895C148.101 136.65 146.284 134.83 144.043 134.83Z"
              fill="#DDDEE2"
            ></path>
            <path
              d="M146.41 147.025H72.0216C71.0879 147.025 70.3309 147.784 70.3309 148.719C70.3309 149.655 71.0879 150.413 72.0216 150.413H146.41C147.344 150.413 148.101 149.655 148.101 148.719C148.101 147.784 147.344 147.025 146.41 147.025Z"
              fill="#DDDEE2"
            ></path>
            <path
              d="M37.8779 173.822C42.4182 173.822 46.8566 175.171 50.6318 177.698C54.4069 180.226 57.3493 183.818 59.0868 188.02C60.8243 192.223 61.2789 196.847 60.3931 201.309C59.5073 205.77 57.321 209.869 54.1105 213.085C50.9 216.302 46.8096 218.492 42.3565 219.38C37.9034 220.267 33.2876 219.812 29.0929 218.071C24.8982 216.33 21.3129 213.382 18.7905 209.6C16.268 205.818 14.9216 201.371 14.9216 196.822C14.9216 190.722 17.3402 184.872 21.6454 180.559C25.9505 176.245 31.7895 173.822 37.8779 173.822Z"
              fill="#DDDEE2"
            ></path>
            <path
              d="M144.043 190.388H74.3885C72.1476 190.388 70.3309 192.208 70.3309 194.453C70.3309 196.698 72.1476 198.518 74.3885 198.518H144.043C146.284 198.518 148.101 196.698 148.101 194.453C148.101 192.208 146.284 190.388 144.043 190.388Z"
              fill="#DDDEE2"
            ></path>
            <path
              d="M146.748 203.261H71.6835C70.9365 203.261 70.3309 203.867 70.3309 204.616C70.3309 205.364 70.9365 205.971 71.6835 205.971H146.748C147.495 205.971 148.101 205.364 148.101 204.616C148.101 203.867 147.495 203.261 146.748 203.261Z"
              fill="#DDDEE2"
            ></path>
            <path
              d="M37.8779 233.077C42.4182 233.077 46.8566 234.426 50.6318 236.953C54.4069 239.481 57.3493 243.073 59.0868 247.275C60.8243 251.478 61.2789 256.102 60.3931 260.564C59.5073 265.025 57.321 269.123 54.1105 272.34C50.9 275.557 46.8096 277.747 42.3565 278.635C37.9034 279.522 33.2876 279.066 29.0929 277.326C24.8982 275.585 21.3129 272.637 18.7905 268.855C16.268 265.072 14.9216 260.626 14.9216 256.077C14.9216 249.977 17.3402 244.127 21.6454 239.814C25.9505 235.5 31.7895 233.077 37.8779 233.077Z"
              fill="#DDDEE2"
            ></path>
            <path
              d="M144.043 247.301H74.3885C72.1476 247.301 70.3309 249.121 70.3309 251.366C70.3309 253.611 72.1476 255.431 74.3885 255.431H144.043C146.284 255.431 148.101 253.611 148.101 251.366C148.101 249.121 146.284 247.301 144.043 247.301Z"
              fill="#DDDEE2"
            ></path>
            <path
              d="M146.748 260.174H71.6835C70.9365 260.174 70.3309 260.781 70.3309 261.529C70.3309 262.277 70.9365 262.884 71.6835 262.884H146.748C147.495 262.884 148.101 262.277 148.101 261.529C148.101 260.781 147.495 260.174 146.748 260.174Z"
              fill="#DDDEE2"
            ></path>
            <path
              d="M37.8779 291.346C42.4182 291.346 46.8566 292.695 50.6318 295.222C54.4069 297.749 57.3493 301.341 59.0868 305.544C60.8243 309.746 61.2789 314.371 60.3931 318.832C59.5073 323.294 57.321 327.392 54.1105 330.609C50.9 333.825 46.8096 336.016 42.3565 336.903C37.9034 337.791 33.2876 337.335 29.0929 335.594C24.8982 333.853 21.3129 330.906 18.7905 327.123C16.268 323.341 14.9216 318.894 14.9216 314.345C14.9216 308.245 17.3402 302.395 21.6454 298.082C25.9505 293.769 31.7895 291.346 37.8779 291.346Z"
              fill="#DDDEE2"
            ></path>
            <path
              d="M144.043 305.569H74.3885C72.1476 305.569 70.3309 307.389 70.3309 309.635C70.3309 311.88 72.1476 313.7 74.3885 313.7H144.043C146.284 313.7 148.101 311.88 148.101 309.635C148.101 307.389 146.284 305.569 144.043 305.569Z"
              fill="#DDDEE2"
            ></path>
            <path
              d="M146.748 318.442H71.6835C70.9365 318.442 70.3309 319.049 70.3309 319.797C70.3309 320.546 70.9365 321.153 71.6835 321.153H146.748C147.495 321.153 148.101 320.546 148.101 319.797C148.101 319.049 147.495 318.442 146.748 318.442Z"
              fill="#DDDEE2"
            ></path>
          </g>
          <defs>
            <clipPath id="clip0_1308_1577">
              <rect width="188" height="374" fill="white"></rect>
            </clipPath>
          </defs>
        </svg>