<svg xmlns="http://www.w3.org/2000/svg" width="470" height="374" viewBox="0 0 470 374" fill="none" class="userDetailImage"><g clip-path="url(#clip0_1308_1626)"><path d="M463.228 0.338867H6.77234C3.2191 0.338867 0.338623 3.22063 0.338623 6.77546V367.225C0.338623 370.78 3.2191 373.661 6.77234 373.661H463.228C466.781 373.661 469.661 370.78 469.661 367.225V6.77546C469.661 3.22063 466.781 0.338867 463.228 0.338867Z" stroke="#DBDBE8"></path><path d="M426.657 276.773H23.7032C20.15 276.773 17.2695 279.655 17.2695 283.21V334.025C17.2695 337.58 20.15 340.462 23.7032 340.462H426.657C430.21 340.462 433.091 337.58 433.091 334.025V283.21C433.091 279.655 430.21 276.773 426.657 276.773Z" stroke="#DBDBE8"></path><path d="M6.77233 0H463.228C465.024 0 466.746 0.713831 468.016 1.98446C469.286 3.25508 470 4.97842 470 6.77536V42.6848H0V6.77536C0 4.97842 0.713512 3.25508 1.98357 1.98446C3.25363 0.713831 4.9762 0 6.77233 0Z" fill="#3979C3"></path><path d="M470 42.0068H0V73.1735H470V42.0068Z" fill="#EBEBED"></path><path d="M196.736 15.583H32.8458C29.6666 15.583 27.0894 18.1614 27.0894 21.3421C27.0894 24.5227 29.6666 27.1011 32.8458 27.1011H196.736C199.916 27.1011 202.493 24.5227 202.493 21.3421C202.493 18.1614 199.916 15.583 196.736 15.583Z" fill="white"></path><path d="M73.8185 52.1699H30.4755C28.6054 52.1699 27.0894 53.6866 27.0894 55.5576V59.6228C27.0894 61.4938 28.6054 63.0105 30.4755 63.0105H73.8185C75.6886 63.0105 77.2046 61.4938 77.2046 59.6228V55.5576C77.2046 53.6866 75.6886 52.1699 73.8185 52.1699Z" fill="#C8CCCF"></path><path d="M134.092 52.1699H90.7492C88.8791 52.1699 87.363 53.6866 87.363 55.5576V59.6228C87.363 61.4938 88.8791 63.0105 90.7492 63.0105H134.092C135.962 63.0105 137.478 61.4938 137.478 59.6228V55.5576C137.478 53.6866 135.962 52.1699 134.092 52.1699Z" fill="#C8CCCF"></path><path d="M426.657 90.4512H312.882C309.329 90.4512 306.448 93.3329 306.448 96.8878V252.044C306.448 255.598 309.329 258.48 312.882 258.48H426.657C430.21 258.48 433.091 255.598 433.091 252.044V96.8878C433.091 93.3329 430.21 90.4512 426.657 90.4512Z" stroke="#DBDBE8"></path><path d="M390.087 107.051H321.686C319.816 107.051 318.3 108.567 318.3 110.438V120.602C318.3 122.472 319.816 123.989 321.686 123.989H390.087C391.957 123.989 393.473 122.472 393.473 120.602V110.438C393.473 108.567 391.957 107.051 390.087 107.051Z" fill="#C8CCCF"></path><path d="M417.176 136.862H321.686C319.816 136.862 318.3 138.379 318.3 140.25C318.3 142.121 319.816 143.638 321.686 143.638H417.176C419.046 143.638 420.562 142.121 420.562 140.25C420.562 138.379 419.046 136.862 417.176 136.862Z" fill="#C8CCCF"></path><path d="M96.8443 292.695H37.925C36.0549 292.695 34.5388 294.212 34.5388 296.083V306.246C34.5388 308.117 36.0549 309.634 37.925 309.634H96.8443C98.7144 309.634 100.23 308.117 100.23 306.246V296.083C100.23 294.212 98.7144 292.695 96.8443 292.695Z" fill="#C8CCCF"></path><path d="M133.415 317.087H37.925C36.0549 317.087 34.5388 318.604 34.5388 320.475C34.5388 322.346 36.0549 323.862 37.925 323.862H133.415C135.285 323.862 136.801 322.346 136.801 320.475C136.801 318.604 135.285 317.087 133.415 317.087Z" fill="#C8CCCF"></path><path d="M272.925 317.087H177.435C175.565 317.087 174.049 318.604 174.049 320.475C174.049 322.346 175.565 323.862 177.435 323.862H272.925C274.795 323.862 276.311 322.346 276.311 320.475C276.311 318.604 274.795 317.087 272.925 317.087Z" fill="#C8CCCF"></path><path d="M412.435 317.087H316.945C315.075 317.087 313.559 318.604 313.559 320.475C313.559 322.346 315.075 323.862 316.945 323.862H412.435C414.305 323.862 415.821 322.346 415.821 320.475C415.821 318.604 414.305 317.087 412.435 317.087Z" fill="#C8CCCF"></path><path d="M234.323 302.858H177.435C175.565 302.858 174.049 304.375 174.049 306.246C174.049 308.117 175.565 309.634 177.435 309.634H234.323C236.193 309.634 237.709 308.117 237.709 306.246C237.709 304.375 236.193 302.858 234.323 302.858Z" fill="#C8CCCF"></path><path d="M373.833 302.858H316.945C315.075 302.858 313.559 304.375 313.559 306.246C313.559 308.117 315.075 309.634 316.945 309.634H373.833C375.703 309.634 377.219 308.117 377.219 306.246C377.219 304.375 375.703 302.858 373.833 302.858Z" fill="#C8CCCF"></path><path d="M417.176 166.674H321.686C319.816 166.674 318.3 168.191 318.3 170.062C318.3 171.932 319.816 173.449 321.686 173.449H417.176C419.046 173.449 420.562 171.932 420.562 170.062C420.562 168.191 419.046 166.674 417.176 166.674Z" fill="#C8CCCF"></path><path d="M417.176 197.841H321.686C319.816 197.841 318.3 199.358 318.3 201.229C318.3 203.099 319.816 204.616 321.686 204.616H417.176C419.046 204.616 420.562 203.099 420.562 201.229C420.562 199.358 419.046 197.841 417.176 197.841Z" fill="#C8CCCF"></path><path d="M397.536 151.769H321.686C319.816 151.769 318.3 153.285 318.3 155.156C318.3 157.027 319.816 158.544 321.686 158.544H397.536C399.406 158.544 400.922 157.027 400.922 155.156C400.922 153.285 399.406 151.769 397.536 151.769Z" fill="#C8CCCF"></path><path d="M397.536 182.935H321.686C319.816 182.935 318.3 184.451 318.3 186.322C318.3 188.193 319.816 189.71 321.686 189.71H397.536C399.406 189.71 400.922 188.193 400.922 186.322C400.922 184.451 399.406 182.935 397.536 182.935Z" fill="#C8CCCF"></path><path d="M194.366 52.1699H151.023C149.153 52.1699 147.637 53.6866 147.637 55.5576V59.6228C147.637 61.4938 149.153 63.0105 151.023 63.0105H194.366C196.236 63.0105 197.752 61.4938 197.752 59.6228V55.5576C197.752 53.6866 196.236 52.1699 194.366 52.1699Z" fill="#C8CCCF"></path><path d="M281.729 90.4512H23.7032C20.15 90.4512 17.2695 93.3329 17.2695 96.8878V252.044C17.2695 255.598 20.15 258.48 23.7032 258.48H281.729C285.282 258.48 288.163 255.598 288.163 252.044V96.8878C288.163 93.3329 285.282 90.4512 281.729 90.4512Z" stroke="#DBDBE8"></path><path d="M211.974 107.051H132.06C130.19 107.051 128.674 108.567 128.674 110.438V120.602C128.674 122.472 130.19 123.989 132.06 123.989H211.974C213.844 123.989 215.36 122.472 215.36 120.602V110.438C215.36 108.567 213.844 107.051 211.974 107.051Z" fill="#C8CCCF"></path><path d="M255.994 136.862H132.06C130.19 136.862 128.674 138.379 128.674 140.25C128.674 142.121 130.19 143.638 132.06 143.638H255.994C257.864 143.638 259.38 142.121 259.38 140.25C259.38 138.379 257.864 136.862 255.994 136.862Z" fill="#C8CCCF"></path><path d="M255.994 166.674H132.06C130.19 166.674 128.674 168.191 128.674 170.062C128.674 171.932 130.19 173.449 132.06 173.449H255.994C257.864 173.449 259.38 171.932 259.38 170.062C259.38 168.191 257.864 166.674 255.994 166.674Z" fill="#C8CCCF"></path><path d="M255.994 197.841H132.06C130.19 197.841 128.674 199.358 128.674 201.229C128.674 203.099 130.19 204.616 132.06 204.616H255.994C257.864 204.616 259.38 203.099 259.38 201.229C259.38 199.358 257.864 197.841 255.994 197.841Z" fill="#C8CCCF"></path><path d="M237.032 151.769H132.06C130.19 151.769 128.674 153.285 128.674 155.156C128.674 157.027 130.19 158.544 132.06 158.544H237.032C238.902 158.544 240.418 157.027 240.418 155.156C240.418 153.285 238.902 151.769 237.032 151.769Z" fill="#C8CCCF"></path><path d="M237.032 182.935H132.06C130.19 182.935 128.674 184.451 128.674 186.322C128.674 188.193 130.19 189.71 132.06 189.71H237.032C238.902 189.71 240.418 188.193 240.418 186.322C240.418 184.451 238.902 182.935 237.032 182.935Z" fill="#C8CCCF"></path><path d="M74.4958 188.355C96.9374 188.355 115.13 170.155 115.13 147.703C115.13 125.251 96.9374 107.051 74.4958 107.051C52.0543 107.051 33.8618 125.251 33.8618 147.703C33.8618 170.155 52.0543 188.355 74.4958 188.355Z" fill="#DDDEE2"></path></g><defs><clipPath id="clip0_1308_1626"><rect width="470" height="374" fill="white"></rect></clipPath></defs></svg>